<?xml version="1.0" encoding="UTF-8"?>
<svg width="270px" height="75px" viewBox="0 0 270 75" version="1.1" xmlns="http://www.w3.org/2000/svg" xmlns:xlink="http://www.w3.org/1999/xlink">
    <!-- Generator: Sketch 52.2 (67145) - http://www.bohemiancoding.com/sketch -->
    <title>SetButtons</title>
    <desc>Created with Sketch.</desc>
    <g id="SetButtons" stroke="none" stroke-width="1" fill="none" fill-rule="evenodd">
        <path d="M82.16,35.64 C85.4666832,36.6000048 88.0133244,38.279988 89.8,40.68 C91.5866756,43.080012 92.48,46.013316 92.48,49.48 C92.48,52.7866832 91.5866756,55.6533212 89.8,58.08 C88.0133244,60.5066788 85.4400168,62.3733268 82.08,63.68 C78.7199832,64.9866732 74.8000224,65.64 70.32,65.64 C66.31998,65.64 62.4400188,65.0933388 58.68,64 C54.9199812,62.9066612 51.9200112,61.426676 49.68,59.56 L54.4,48.92 C59.3600248,52.3333504 64.4266408,54.04 69.6,54.04 C72.800016,54.04 75.06666,53.573338 76.4,52.64 C77.73334,51.706662 78.4,50.1200112 78.4,47.88 C78.4,45.746656 77.7466732,44.2266712 76.44,43.32 C75.1333268,42.4133288 72.9600152,41.96 69.92,41.96 L61.04,41.96 L61.04,30.44 L68.4,30.44 C71.3866816,30.44 73.5333268,30.0266708 74.84,29.2 C76.1466732,28.3733292 76.8,27.026676 76.8,25.16 C76.8,23.1333232 76.1733396,21.586672 74.92,20.52 C73.6666604,19.453328 71.9200112,18.92 69.68,18.92 C67.3866552,18.92 64.973346,19.3599956 62.44,20.24 C59.906654,21.1200044 57.4933448,22.3866584 55.2,24.04 L50.48,13.4 C52.7733448,11.5866576 55.7733148,10.1200056 59.48,9 C63.1866852,7.8799944 66.9333144,7.32 70.72,7.32 C74.7733536,7.32 78.3199848,7.9599936 81.36,9.24 C84.4000152,10.5200064 86.7599916,12.3466548 88.44,14.72 C90.1200084,17.0933452 90.96,19.8533176 90.96,23 C91.0133336,25.9866816 90.2666744,28.5733224 88.72,30.76 C87.1733256,32.9466776 84.9866808,34.573328 82.16,35.64 Z" id="3" fill="#FFFFFF"></path>
        <path d="M123.833,18.561 C125.135007,18.9330019 126.13733,19.589162 126.84,20.5295 C127.54267,21.469838 127.894,22.61166 127.894,23.955 C127.894,25.1743394 127.57367,26.2386621 126.933,27.148 C126.29233,28.0573379 125.377839,28.7599975 124.1895,29.256 C123.001161,29.7520025 121.601008,30 119.989,30 L108.984,30 L108.984,7.928 L119.71,7.928 C122.024678,7.928 123.863993,8.4446615 125.228,9.478 C126.592007,10.5113385 127.274,11.9063246 127.274,13.663 C127.274,14.7996724 126.974336,15.8019957 126.375,16.67 C125.775664,17.5380043 124.928339,18.1683314 123.833,18.561 Z M114.657,16.577 L118.718,16.577 C119.792672,16.577 120.577998,16.4116683 121.074,16.081 C121.570002,15.7503317 121.818,15.2233369 121.818,14.5 C121.818,13.7559963 121.564836,13.2083351 121.0585,12.857 C120.552164,12.5056649 119.772005,12.33 118.718,12.33 L114.657,12.33 L114.657,16.577 Z M119.307,25.598 C120.423006,25.598 121.223831,25.4223351 121.7095,25.071 C122.195169,24.7196649 122.438,24.1306708 122.438,23.304 C122.438,22.4566624 122.200336,21.8573351 121.725,21.506 C121.249664,21.1546649 120.443672,20.979 119.307,20.979 L114.657,20.979 L114.657,25.598 L119.307,25.598 Z M146.277,14.252 L146.277,30 L140.79,30 L140.79,27.892 C139.777328,29.4626745 138.27901,30.248 136.295,30.248 C134.290323,30.248 132.797172,29.6900056 131.8155,28.574 C130.833828,27.4579944 130.343,25.7530115 130.343,23.459 L130.343,14.252 L135.954,14.252 L135.954,23.614 C135.954,25.1640077 136.62566,25.939 137.969,25.939 C138.754337,25.939 139.389831,25.6600028 139.8755,25.102 C140.361169,24.5439972 140.604,23.8000046 140.604,22.87 L140.604,14.252 L146.277,14.252 Z M158.925,25.722 C159.297002,25.722 159.792997,25.6600006 160.413,25.536 L160.413,29.783 C159.64833,30.0930015 158.677006,30.248 157.499,30.248 C155.370323,30.248 153.753172,29.6486727 152.6475,28.45 C151.541828,27.2513273 150.989,25.5876773 150.989,23.459 L150.989,18.375 L148.044,18.375 L148.044,14.252 L150.989,14.252 L150.989,10.687 L156.6,8.889 L156.6,14.252 L160.382,14.252 L160.382,18.375 L156.6,18.375 L156.6,23.459 C156.6,24.2030037 156.822164,24.7661648 157.2665,25.1485 C157.710836,25.5308352 158.263663,25.722 158.925,25.722 Z M171.17,25.722 C171.542002,25.722 172.037997,25.6600006 172.658,25.536 L172.658,29.783 C171.89333,30.0930015 170.922006,30.248 169.744,30.248 C167.615323,30.248 165.998172,29.6486727 164.8925,28.45 C163.786828,27.2513273 163.234,25.5876773 163.234,23.459 L163.234,18.375 L160.289,18.375 L160.289,14.252 L163.234,14.252 L163.234,10.687 L168.845,8.889 L168.845,14.252 L172.627,14.252 L172.627,18.375 L168.845,18.375 L168.845,23.459 C168.845,24.2030037 169.067164,24.7661648 169.5115,25.1485 C169.955836,25.5308352 170.508663,25.722 171.17,25.722 Z M182.702,30.248 C180.945325,30.248 179.416007,29.9173366 178.114,29.256 C176.811993,28.5946634 175.80967,27.6440062 175.107,26.404 C174.40433,25.1639938 174.053,23.7070084 174.053,22.033 C174.053,20.3589916 174.40433,18.9020062 175.107,17.662 C175.80967,16.4219938 176.811993,15.4713366 178.114,14.81 C179.416007,14.1486634 180.945325,13.818 182.702,13.818 C184.438009,13.818 185.951827,14.15383 187.2435,14.8255 C188.535173,15.49717 189.53233,16.4478272 190.235,17.6775 C190.93767,18.9071728 191.289,20.3589916 191.289,22.033 C191.289,23.7070084 190.93767,25.1588272 190.235,26.3885 C189.53233,27.6181728 188.535173,28.56883 187.2435,29.2405 C185.951827,29.91217 184.438009,30.248 182.702,30.248 Z M182.702,26.063 C184.727343,26.063 185.74,24.7196801 185.74,22.033 C185.74,20.6689932 185.486836,19.6615033 184.9805,19.0105 C184.474164,18.3594967 183.714672,18.034 182.702,18.034 C181.668661,18.034 180.893669,18.3594967 180.377,19.0105 C179.860331,19.6615033 179.602,20.6689932 179.602,22.033 C179.602,23.4176736 179.860331,24.4354967 180.377,25.0865 C180.893669,25.7375033 181.668661,26.063 182.702,26.063 Z M204.464,13.818 C206.324009,13.818 207.713829,14.381161 208.6335,15.5075 C209.553171,16.633839 210.013,18.3336553 210.013,20.607 L210.013,30 L204.402,30 L204.402,20.855 C204.402,19.8836618 204.236668,19.1861688 203.906,18.7625 C203.575332,18.3388312 203.05867,18.127 202.356,18.127 C201.508662,18.127 200.826669,18.4111638 200.31,18.9795 C199.793331,19.5478362 199.535,20.2969954 199.535,21.227 L199.535,30 L193.924,30 L193.924,18.778 C193.924,17.0833249 193.841334,15.5746733 193.676,14.252 L198.946,14.252 L199.225,16.577 C199.824336,15.6883289 200.568329,15.0063357 201.457,14.531 C202.345671,14.0556643 203.347994,13.818 204.464,13.818 Z M219.623,30.248 C216.481651,30.248 214.001676,29.617673 212.183,28.357 L213.609,24.544 C214.456338,25.1226696 215.417328,25.5721651 216.492,25.8925 C217.566672,26.2128349 218.620662,26.373 219.654,26.373 C220.29467,26.373 220.790665,26.2800009 221.142,26.094 C221.493335,25.9079991 221.669,25.6496683 221.669,25.319 C221.669,25.0296652 221.539835,24.7971675 221.2815,24.6215 C221.023165,24.4458325 220.532337,24.2856674 219.809,24.141 L217.267,23.552 C215.654992,23.2213317 214.492504,22.6995036 213.7795,21.9865 C213.066496,21.2734964 212.71,20.286673 212.71,19.026 C212.71,18.0133283 213.009664,17.1143373 213.609,16.329 C214.208336,15.5436627 215.040161,14.9288356 216.1045,14.4845 C217.168839,14.0401644 218.393326,13.818 219.778,13.818 C220.914672,13.818 222.030661,13.9833317 223.126,14.314 C224.221339,14.6446683 225.244329,15.1096637 226.195,15.709 L224.707,19.429 C223.880329,18.891664 223.033004,18.4783348 222.165,18.189 C221.296996,17.8996652 220.48067,17.755 219.716,17.755 C219.095997,17.755 218.610335,17.8531657 218.259,18.0495 C217.907665,18.2458343 217.732,18.5299981 217.732,18.902 C217.732,19.1293345 217.835332,19.310166 218.042,19.4445 C218.248668,19.578834 218.64133,19.7183326 219.22,19.863 L221.855,20.452 C223.529008,20.8446686 224.73283,21.4181629 225.4665,22.1725 C226.20017,22.9268371 226.567,23.9549935 226.567,25.257 C226.567,26.8070077 225.952173,28.0263289 224.7225,28.915 C223.492827,29.8036711 221.793011,30.248 219.623,30.248 Z M115.029,65.248 C111.887651,65.248 109.407676,64.617673 107.589,63.357 L109.015,59.544 C109.862338,60.1226696 110.823328,60.5721651 111.898,60.8925 C112.972672,61.2128349 114.026662,61.373 115.06,61.373 C115.70067,61.373 116.196665,61.2800009 116.548,61.094 C116.899335,60.9079991 117.075,60.6496683 117.075,60.319 C117.075,60.0296652 116.945835,59.7971675 116.6875,59.6215 C116.429165,59.4458325 115.938337,59.2856674 115.215,59.141 L112.673,58.552 C111.060992,58.2213317 109.898504,57.6995036 109.1855,56.9865 C108.472496,56.2734964 108.116,55.286673 108.116,54.026 C108.116,53.0133283 108.415664,52.1143373 109.015,51.329 C109.614336,50.5436627 110.446161,49.9288356 111.5105,49.4845 C112.574839,49.0401644 113.799326,48.818 115.184,48.818 C116.320672,48.818 117.436661,48.9833317 118.532,49.314 C119.627339,49.6446683 120.650329,50.1096637 121.601,50.709 L120.113,54.429 C119.286329,53.891664 118.439004,53.4783348 117.571,53.189 C116.702996,52.8996652 115.88667,52.755 115.122,52.755 C114.501997,52.755 114.016335,52.8531657 113.665,53.0495 C113.313665,53.2458343 113.138,53.5299981 113.138,53.902 C113.138,54.1293345 113.241332,54.310166 113.448,54.4445 C113.654668,54.578834 114.04733,54.7183326 114.626,54.863 L117.261,55.452 C118.935008,55.8446686 120.13883,56.4181629 120.8725,57.1725 C121.60617,57.9268371 121.973,58.9549935 121.973,60.257 C121.973,61.8070077 121.358173,63.0263289 120.1285,63.915 C118.898827,64.8036711 117.199011,65.248 115.029,65.248 Z M138.93,57.684 L129.041,57.684 C129.144334,58.9033394 129.495664,59.781664 130.095,60.319 C130.694336,60.856336 131.572661,61.125 132.73,61.125 C133.515337,61.125 134.300663,60.9958346 135.086,60.7375 C135.871337,60.4791654 136.58433,60.1226689 137.225,59.668 L138.651,63.388 C137.865663,63.9666696 136.915006,64.4213317 135.799,64.752 C134.682994,65.0826683 133.567006,65.248 132.451,65.248 C130.652991,65.248 129.092673,64.9173366 127.77,64.256 C126.447327,63.5946634 125.43467,62.6491728 124.732,61.4195 C124.02933,60.1898272 123.678,58.7380084 123.678,57.064 C123.678,55.4726587 124.01383,54.0518396 124.6855,52.8015 C125.35717,51.5511604 126.287161,50.5746702 127.4755,49.872 C128.663839,49.1693298 130.022659,48.818 131.552,48.818 C133.040007,48.818 134.341994,49.1486634 135.458,49.81 C136.574006,50.4713366 137.431664,51.4168272 138.031,52.6465 C138.630336,53.8761728 138.93,55.3073252 138.93,56.94 L138.93,57.684 Z M131.707,52.662 C130.322326,52.662 129.454335,53.4679919 129.103,55.08 L134.125,55.08 C133.918332,53.4679919 133.11234,52.662 131.707,52.662 Z M150.462,60.722 C150.834002,60.722 151.329997,60.6600006 151.95,60.536 L151.95,64.783 C151.18533,65.0930015 150.214006,65.248 149.036,65.248 C146.907323,65.248 145.290172,64.6486727 144.1845,63.45 C143.078828,62.2513273 142.526,60.5876773 142.526,58.459 L142.526,53.375 L139.581,53.375 L139.581,49.252 L142.526,49.252 L142.526,45.687 L148.137,43.889 L148.137,49.252 L151.919,49.252 L151.919,53.375 L148.137,53.375 L148.137,58.459 C148.137,59.2030037 148.359164,59.7661648 148.8035,60.1485 C149.247836,60.5308352 149.800663,60.722 150.462,60.722 Z M169.899,49.252 L169.899,65 L164.412,65 L164.412,62.892 C163.399328,64.4626745 161.90101,65.248 159.917,65.248 C157.912323,65.248 156.419172,64.6900056 155.4375,63.574 C154.455828,62.4579944 153.965,60.7530115 153.965,58.459 L153.965,49.252 L159.576,49.252 L159.576,58.614 C159.576,60.1640077 160.24766,60.939 161.591,60.939 C162.376337,60.939 163.011831,60.6600028 163.4975,60.102 C163.983169,59.5439972 164.226,58.8000046 164.226,57.87 L164.226,49.252 L169.899,49.252 Z M183.632,48.818 C184.97534,48.818 186.173995,49.1693298 187.228,49.872 C188.282005,50.5746702 189.108664,51.556327 189.708,52.817 C190.307336,54.077673 190.607,55.5243252 190.607,57.157 C190.607,58.7690081 190.312503,60.1898272 189.7235,61.4195 C189.134497,62.6491728 188.313005,63.5946634 187.259,64.256 C186.204995,64.9173366 184.996007,65.248 183.632,65.248 C182.598661,65.248 181.658338,65.046502 180.811,64.6435 C179.963662,64.240498 179.312669,63.6773369 178.858,62.954 L178.858,71.696 L173.247,71.696 L173.247,53.778 C173.247,52.0833249 173.164334,50.5746733 172.999,49.252 L178.269,49.252 L178.579,51.701 C178.971669,50.8329957 179.622662,50.1355026 180.532,49.6085 C181.441338,49.0814974 182.474661,48.818 183.632,48.818 Z M181.927,61.063 C182.939672,61.063 183.704331,60.7323366 184.221,60.071 C184.737669,59.4096634 184.996,58.4383397 184.996,57.157 C184.996,55.8549935 184.732503,54.8475036 184.2055,54.1345 C183.678497,53.4214964 182.919005,53.065 181.927,53.065 C180.914328,53.065 180.139336,53.4059966 179.602,54.088 C179.064664,54.7700034 178.796,55.7723267 178.796,57.095 C178.796,58.3763397 179.064664,59.3579966 179.602,60.04 C180.139336,60.7220034 180.914328,61.063 181.927,61.063 Z" id="Buttons-setup" fill="#FFFFFF"></path>
    </g>
</svg>