<?xml version="1.0" encoding="UTF-8"?>
<svg width="125px" height="12px" viewBox="0 0 125 12" version="1.1" xmlns="http://www.w3.org/2000/svg" xmlns:xlink="http://www.w3.org/1999/xlink">
    <!-- Generator: Sketch 52.2 (67145) - http://www.bohemiancoding.com/sketch -->
    <title>NavTapCodeLogo</title>
    <desc>Created with Sketch.</desc>
    <defs>
        <radialGradient cx="49.9405907%" cy="49.9930215%" fx="49.9405907%" fy="49.9930215%" r="50.5482479%" gradientTransform="translate(0.499406,0.499930),scale(1.000000,0.964506),translate(-0.499406,-0.499930)" id="radialGradient-1">
            <stop stop-color="#FFFFFF" stop-opacity="0" offset="0%"></stop>
            <stop stop-color="#FFFFFF" stop-opacity="0.01" offset="31%"></stop>
            <stop stop-color="#FFFFFF" stop-opacity="0.04" offset="44%"></stop>
            <stop stop-color="#FFFFFF" stop-opacity="0.09" offset="55%"></stop>
            <stop stop-color="#FFFFFF" stop-opacity="0.16" offset="63%"></stop>
            <stop stop-color="#FFFFFF" stop-opacity="0.25" offset="71%"></stop>
            <stop stop-color="#FFFFFF" stop-opacity="0.36" offset="78%"></stop>
            <stop stop-color="#FFFFFF" stop-opacity="0.5" offset="84%"></stop>
            <stop stop-color="#FFFFFF" stop-opacity="0.66" offset="90%"></stop>
            <stop stop-color="#FFFFFF" stop-opacity="0.83" offset="95%"></stop>
            <stop stop-color="#FFFFFF" offset="100%"></stop>
        </radialGradient>
    </defs>
    <g id="Page-1" stroke="none" stroke-width="1" fill="none" fill-rule="evenodd">
        <g id="Start1" transform="translate(-10.000000, -20.000000)">
            <g id="NavTapCodeLogo" transform="translate(10.000000, 20.000000)">
                <g id="LogoWhite-Copy-11">
                    <polygon id="Path" fill="#FFFFFF" points="0 8.30769231 0 6.46153846 16.2037037 6.46153846 16.2037037 8.30769231"></polygon>
                    <polygon id="Path" fill="#FFFFFF" points="108.796296 8.30769231 108.796296 6.46153846 125 6.46153846 125 8.30769231"></polygon>
                    <polygon id="Path" fill="#FFFFFF" points="24.6525575 12 24.6525575 2.92385752 21.2962963 2.92385752 21.2962963 0.461538462 31.0185185 0.461538462 31.0185185 2.92385752 27.6622573 2.92385752 27.6622573 12"></polygon>
                    <path d="M39.6501521,12 L38.6479309,9.6138007 L33.6216138,9.6138007 L32.6193925,11.9965567 L29.6296296,11.9965567 L34.9263605,0.461538462 L37.2806509,0.461538462 L42.5925926,11.9965567 L39.6501521,12 Z M34.5917234,7.33262172 L37.6778212,7.33262172 L36.1415327,3.68790028 L34.5917234,7.33262172 Z" id="Shape" fill="#FFFFFF" fill-rule="nonzero"></path>
                    <path d="M43.0555556,0.461538462 L48.59375,0.461538462 C49.9236111,0.461538462 50.953125,0.777220392 51.6822917,1.40858425 C52.4114583,2.03994811 52.7766204,2.8963071 52.7777778,3.9776612 C52.7777778,5.04753596 52.4074074,5.90102511 51.6666667,6.53812864 C50.9259259,7.17523217 49.9016204,7.49378394 48.59375,7.49378394 L46.1319444,7.49378394 L46.1319444,12 L43.0555556,12 L43.0555556,0.461538462 Z M48.1857639,5.22603974 C49.3431713,5.22603974 49.921875,4.82081894 49.921875,4.01037733 C49.9453858,3.65088534 49.7896948,3.30280435 49.5052083,3.07882865 C49.2274306,2.8664608 48.7887731,2.76085085 48.1892361,2.76199878 L46.1319444,2.76198953 L46.1319444,5.22603974 L48.1857639,5.22603974 Z" id="Shape" fill="#FFFFFF" fill-rule="nonzero"></path>
                    <path d="M61.5502155,11.2461233 C60.6821303,10.7641773 59.9729776,10.0298382 59.5122512,9.13577828 C59.0210563,8.16173432 58.7754287,7.07750853 58.7976847,5.98160677 C58.7759419,4.89356457 59.0216535,3.81737118 59.5122512,2.85187267 C59.9765506,1.96449147 60.6851764,1.23616044 61.5502155,0.75723746 C62.5055137,0.238426888 63.574556,-0.02175156 64.6557661,0.00142325666 C65.3939301,0.000849454115 66.1276248,0.118646305 66.8301632,0.350529124 C67.4510536,0.535441528 68.0265217,0.853147759 68.5185185,1.28264179 L67.6044191,3.46804452 C66.6732655,2.77914228 65.7102776,2.43410931 64.7154555,2.43294562 C63.7945344,2.43294562 63.0884948,2.73143114 62.5973369,3.32840217 C62.106179,3.92537321 61.8628739,4.80977474 61.8674217,5.98160677 C61.8674217,7.16391197 62.1135691,8.05645931 62.605864,8.65924877 C63.0981588,9.26203824 63.8041983,9.56285113 64.7239825,9.56168744 C65.7188047,9.56168744 66.6817925,9.21665447 67.6129461,8.52658854 L68.5185185,10.7119913 C68.025041,11.1433483 67.4478805,11.462811 66.8250469,11.6493405 C66.122321,11.8804158 65.388751,11.9981926 64.6506499,11.9984464 C63.5713736,12.0226521 62.5040118,11.7636558 61.5502155,11.2461233 Z" id="Path" fill="#FFFFFF"></path>
                    <path d="M72.1616199,11.2664976 C71.2972772,10.7892118 70.594705,10.0589041 70.1454558,9.17074094 C69.6598745,8.18196335 69.4199022,7.08778364 69.4464271,5.9834444 C69.4199522,4.88197848 69.6649595,3.7912313 70.1592298,2.81011958 C70.616375,1.93161592 71.3181134,1.20887071 72.1771156,0.73182759 C74.1112648,-0.24394253 76.3844331,-0.24394253 78.3185823,0.73182759 C79.1751885,1.20628744 79.8720311,1.93016668 80.3192507,2.81011958 C80.8034977,3.79432456 81.0428989,4.88379805 81.0165577,5.9834444 C81.0414068,7.08797929 80.8021507,8.18218613 80.3192507,9.1724874 C79.8758741,10.0596681 79.1784914,10.7901961 78.3185823,11.268244 C76.3813833,12.2439187 74.1057059,12.2439187 72.1685069,11.268244 L72.1616199,11.2664976 Z M76.1388523,7.19199739 C76.3557923,6.91838472 76.4642623,6.5184445 76.4642623,5.99217672 C76.4642623,5.46590895 76.3557923,5.06946165 76.1388523,4.80283484 C75.9127182,4.54388294 75.5880277,4.39564046 75.2469881,4.39564046 C74.9059485,4.39564046 74.581258,4.54388294 74.3551239,4.80283484 C74.1399057,5.07353673 74.0331574,5.46998403 74.0331574,5.99566965 C74.0331574,6.52135527 74.1399057,6.92653488 74.3551239,7.19898324 C74.5800654,7.4600141 74.9051977,7.60976666 75.2469881,7.60976666 C75.5887785,7.60976666 75.9139108,7.4600141 76.1388523,7.19898324 L76.1388523,7.19199739 Z" id="Shape" fill="url(#radialGradient-1)" fill-rule="nonzero"></path>
                    <path d="M82.8703704,0.461538462 L87.4879026,0.461538462 C88.7354287,0.461538462 89.8115604,0.691193864 90.7162978,1.15050467 C91.5906687,1.58120112 92.315773,2.27396741 92.7949459,3.13644976 C93.295012,4.08084247 93.5438089,5.14275499 93.516488,6.2161287 C93.516488,7.4149299 93.2782218,8.44837921 92.8016893,9.31647663 C92.3294647,10.1835542 91.6063632,10.880228 90.7314704,11.3110338 C89.8323525,11.7703446 88.7511633,12 87.4879026,12 L82.8703704,12 L82.8703704,0.461538462 Z M87.2805436,9.57139412 C88.381963,9.57139412 89.2046558,9.29293695 89.7486222,8.7360226 C90.2925885,8.17910825 90.5645716,7.33914362 90.5645716,6.2161287 C90.5645716,4.00110235 89.4698956,2.89301503 87.2805436,2.89186675 L85.852632,2.89186675 L85.852632,9.57139412 L87.2805436,9.57139412 Z" id="Shape" fill="#FFFFFF" fill-rule="nonzero"></path>
                    <polygon id="Path" fill="#FFFFFF" points="94.9074074 12 94.9074074 0.461538462 103.238998 0.461538462 103.238998 2.79471491 97.9099865 2.79471491 97.9099865 4.96431072 102.895697 4.96431072 102.895697 7.29920907 97.9099865 7.29920907 97.9099865 9.66510165 103.240741 9.66510165 103.240741 12"></polygon>
                </g>
            </g>
        </g>
    </g>
</svg>