<?xml version="1.0" encoding="UTF-8"?>
<svg width="270px" height="75px" viewBox="0 0 270 75" version="1.1" xmlns="http://www.w3.org/2000/svg" xmlns:xlink="http://www.w3.org/1999/xlink">
    <!-- Generator: Sketch 52.2 (67145) - http://www.bohemiancoding.com/sketch -->
    <title>SetPlayers</title>
    <desc>Created with Sketch.</desc>
    <g id="SetPlayers" stroke="none" stroke-width="1" fill="none" fill-rule="evenodd">
        <path d="M92.64,53.08 L92.64,65 L52.48,65 L52.48,53.96 L71.04,34.6 C74.506684,30.9733152 76.24,27.5866824 76.24,24.44 C76.24,20.7599816 74.0533552,18.92 69.68,18.92 C67.4399888,18.92 65.0800124,19.3599956 62.6,20.24 C60.1199876,21.1200044 57.6266792,22.3866584 55.12,24.04 L50.4,13.4 C52.6933448,11.533324 55.6666484,10.0533388 59.32,8.96 C62.9733516,7.8666612 66.6933144,7.32 70.48,7.32 C74.5866872,7.32 78.173318,7.9733268 81.24,9.28 C84.306682,10.5866732 86.6799916,12.4533212 88.36,14.88 C90.0400084,17.3066788 90.88,20.1466504 90.88,23.4 C90.88,26.7066832 90.2266732,29.7066532 88.92,32.4 C87.6133268,35.0933468 85.3866824,38.1199832 82.24,41.48 L70.88,53.08 L92.64,53.08 Z" id="2" fill="#FFFFFF"></path>
        <path d="M108.984,7.928 L119.493,7.928 C122.014346,7.928 123.967326,8.53249395 125.352,9.7415 C126.736674,10.950506 127.429,12.588323 127.429,14.655 C127.429,16.7010102 126.72634,18.3336606 125.321,19.553 C123.91566,20.7723394 121.973012,21.382 119.493,21.382 L114.812,21.382 L114.812,30 L108.984,30 L108.984,7.928 Z M118.718,17.042 C120.908678,17.042 122.004,16.2670078 122.004,14.717 C122.004,13.9316627 121.740503,13.337502 121.2135,12.9345 C120.686497,12.531498 119.854672,12.33 118.718,12.33 L114.812,12.33 L114.812,17.042 L118.718,17.042 Z M129.909,30 L129.909,7.184 L135.52,7.184 L135.52,30 L129.909,30 Z M155.453,14.252 L155.453,30 L149.935,30 L149.935,27.861 C149.480331,28.6050037 148.819004,29.1888312 147.951,29.6125 C147.082996,30.0361688 146.132339,30.248 145.099,30.248 C143.75566,30.248 142.557005,29.9173366 141.503,29.256 C140.448995,28.5946634 139.627503,27.6491728 139.0385,26.4195 C138.449497,25.1898272 138.155,23.7690081 138.155,22.157 C138.155,20.5243252 138.454664,19.077673 139.054,17.817 C139.653336,16.556327 140.479995,15.5746702 141.534,14.872 C142.588005,14.1693298 143.776327,13.818 145.099,13.818 C146.132339,13.818 147.077829,14.0401644 147.9355,14.4845 C148.793171,14.9288356 149.459664,15.5229963 149.935,16.267 L149.935,14.252 L155.453,14.252 Z M146.835,26.063 C147.827005,26.063 148.591664,25.7220034 149.129,25.04 C149.666336,24.3579966 149.935,23.3763397 149.935,22.095 C149.935,20.7929935 149.666336,19.7958368 149.129,19.1035 C148.591664,18.4111632 147.827005,18.065 146.835,18.065 C145.863662,18.065 145.099003,18.4214964 144.541,19.1345 C143.982997,19.8475036 143.704,20.8549935 143.704,22.157 C143.704,23.417673 143.972664,24.38383 144.51,25.0555 C145.047336,25.72717 145.822328,26.063 146.835,26.063 Z M175.076,14.252 L167.853,30.558 C166.902329,32.6866773 165.708841,34.2418284 164.2725,35.2235 C162.836159,36.2051716 161.064011,36.8199988 158.956,37.068 L157.654,32.79 C159.100674,32.5006652 160.185663,32.1286689 160.909,31.674 C161.632337,31.2193311 162.179998,30.589004 162.552,29.783 L162.955,28.915 L156.538,14.252 L162.366,14.252 L165.9,23.335 L169.558,14.252 L175.076,14.252 Z M190.328,22.684 L180.439,22.684 C180.542334,23.9033394 180.893664,24.781664 181.493,25.319 C182.092336,25.856336 182.970661,26.125 184.128,26.125 C184.913337,26.125 185.698663,25.9958346 186.484,25.7375 C187.269337,25.4791654 187.98233,25.1226689 188.623,24.668 L190.049,28.388 C189.263663,28.9666696 188.313006,29.4213317 187.197,29.752 C186.080994,30.0826683 184.965006,30.248 183.849,30.248 C182.050991,30.248 180.490673,29.9173366 179.168,29.256 C177.845327,28.5946634 176.83267,27.6491728 176.13,26.4195 C175.42733,25.1898272 175.076,23.7380084 175.076,22.064 C175.076,20.4726587 175.41183,19.0518396 176.0835,17.8015 C176.75517,16.5511604 177.685161,15.5746702 178.8735,14.872 C180.061839,14.1693298 181.420659,13.818 182.95,13.818 C184.438007,13.818 185.739994,14.1486634 186.856,14.81 C187.972006,15.4713366 188.829664,16.4168272 189.429,17.6465 C190.028336,18.8761728 190.328,20.3073252 190.328,21.94 L190.328,22.684 Z M183.105,17.662 C181.720326,17.662 180.852335,18.4679919 180.501,20.08 L185.523,20.08 C185.316332,18.4679919 184.51034,17.662 183.105,17.662 Z M202.883,13.88 C203.64767,13.88 204.236665,13.9936655 204.65,14.221 L204.65,19.336 C203.761329,18.9226646 202.903671,18.716 202.077,18.716 C199.720988,18.716 198.543,19.8423221 198.543,22.095 L198.543,30 L192.932,30 L192.932,18.778 C192.932,17.0833249 192.849334,15.5746733 192.684,14.252 L197.954,14.252 L198.295,16.887 C198.667002,15.9156618 199.266329,15.1716693 200.093,14.655 C200.919671,14.1383308 201.849661,13.88 202.883,13.88 Z M212.462,30.248 C209.320651,30.248 206.840676,29.617673 205.022,28.357 L206.448,24.544 C207.295338,25.1226696 208.256328,25.5721651 209.331,25.8925 C210.405672,26.2128349 211.459661,26.373 212.493,26.373 C213.13367,26.373 213.629665,26.2800009 213.981,26.094 C214.332335,25.9079991 214.508,25.6496683 214.508,25.319 C214.508,25.0296652 214.378835,24.7971675 214.1205,24.6215 C213.862165,24.4458325 213.371337,24.2856674 212.648,24.141 L210.106,23.552 C208.493992,23.2213317 207.331504,22.6995036 206.6185,21.9865 C205.905496,21.2734964 205.549,20.286673 205.549,19.026 C205.549,18.0133283 205.848664,17.1143373 206.448,16.329 C207.047336,15.5436627 207.879161,14.9288356 208.9435,14.4845 C210.007839,14.0401644 211.232326,13.818 212.617,13.818 C213.753672,13.818 214.869661,13.9833317 215.965,14.314 C217.060339,14.6446683 218.083329,15.1096637 219.034,15.709 L217.546,19.429 C216.719329,18.891664 215.872004,18.4783348 215.004,18.189 C214.135996,17.8996652 213.31967,17.755 212.555,17.755 C211.934997,17.755 211.449335,17.8531657 211.098,18.0495 C210.746665,18.2458343 210.571,18.5299981 210.571,18.902 C210.571,19.1293345 210.674332,19.310166 210.881,19.4445 C211.087668,19.578834 211.48033,19.7183326 212.059,19.863 L214.694,20.452 C216.368008,20.8446686 217.57183,21.4181629 218.3055,22.1725 C219.03917,22.9268371 219.406,23.9549935 219.406,25.257 C219.406,26.8070077 218.791173,28.0263289 217.5615,28.915 C216.331827,29.8036711 214.632011,30.248 212.462,30.248 Z M115.029,65.248 C111.887651,65.248 109.407676,64.617673 107.589,63.357 L109.015,59.544 C109.862338,60.1226696 110.823328,60.5721651 111.898,60.8925 C112.972672,61.2128349 114.026662,61.373 115.06,61.373 C115.70067,61.373 116.196665,61.2800009 116.548,61.094 C116.899335,60.9079991 117.075,60.6496683 117.075,60.319 C117.075,60.0296652 116.945835,59.7971675 116.6875,59.6215 C116.429165,59.4458325 115.938337,59.2856674 115.215,59.141 L112.673,58.552 C111.060992,58.2213317 109.898504,57.6995036 109.1855,56.9865 C108.472496,56.2734964 108.116,55.286673 108.116,54.026 C108.116,53.0133283 108.415664,52.1143373 109.015,51.329 C109.614336,50.5436627 110.446161,49.9288356 111.5105,49.4845 C112.574839,49.0401644 113.799326,48.818 115.184,48.818 C116.320672,48.818 117.436661,48.9833317 118.532,49.314 C119.627339,49.6446683 120.650329,50.1096637 121.601,50.709 L120.113,54.429 C119.286329,53.891664 118.439004,53.4783348 117.571,53.189 C116.702996,52.8996652 115.88667,52.755 115.122,52.755 C114.501997,52.755 114.016335,52.8531657 113.665,53.0495 C113.313665,53.2458343 113.138,53.5299981 113.138,53.902 C113.138,54.1293345 113.241332,54.310166 113.448,54.4445 C113.654668,54.578834 114.04733,54.7183326 114.626,54.863 L117.261,55.452 C118.935008,55.8446686 120.13883,56.4181629 120.8725,57.1725 C121.60617,57.9268371 121.973,58.9549935 121.973,60.257 C121.973,61.8070077 121.358173,63.0263289 120.1285,63.915 C118.898827,64.8036711 117.199011,65.248 115.029,65.248 Z M138.93,57.684 L129.041,57.684 C129.144334,58.9033394 129.495664,59.781664 130.095,60.319 C130.694336,60.856336 131.572661,61.125 132.73,61.125 C133.515337,61.125 134.300663,60.9958346 135.086,60.7375 C135.871337,60.4791654 136.58433,60.1226689 137.225,59.668 L138.651,63.388 C137.865663,63.9666696 136.915006,64.4213317 135.799,64.752 C134.682994,65.0826683 133.567006,65.248 132.451,65.248 C130.652991,65.248 129.092673,64.9173366 127.77,64.256 C126.447327,63.5946634 125.43467,62.6491728 124.732,61.4195 C124.02933,60.1898272 123.678,58.7380084 123.678,57.064 C123.678,55.4726587 124.01383,54.0518396 124.6855,52.8015 C125.35717,51.5511604 126.287161,50.5746702 127.4755,49.872 C128.663839,49.1693298 130.022659,48.818 131.552,48.818 C133.040007,48.818 134.341994,49.1486634 135.458,49.81 C136.574006,50.4713366 137.431664,51.4168272 138.031,52.6465 C138.630336,53.8761728 138.93,55.3073252 138.93,56.94 L138.93,57.684 Z M131.707,52.662 C130.322326,52.662 129.454335,53.4679919 129.103,55.08 L134.125,55.08 C133.918332,53.4679919 133.11234,52.662 131.707,52.662 Z M150.462,60.722 C150.834002,60.722 151.329997,60.6600006 151.95,60.536 L151.95,64.783 C151.18533,65.0930015 150.214006,65.248 149.036,65.248 C146.907323,65.248 145.290172,64.6486727 144.1845,63.45 C143.078828,62.2513273 142.526,60.5876773 142.526,58.459 L142.526,53.375 L139.581,53.375 L139.581,49.252 L142.526,49.252 L142.526,45.687 L148.137,43.889 L148.137,49.252 L151.919,49.252 L151.919,53.375 L148.137,53.375 L148.137,58.459 C148.137,59.2030037 148.359164,59.7661648 148.8035,60.1485 C149.247836,60.5308352 149.800663,60.722 150.462,60.722 Z M169.899,49.252 L169.899,65 L164.412,65 L164.412,62.892 C163.399328,64.4626745 161.90101,65.248 159.917,65.248 C157.912323,65.248 156.419172,64.6900056 155.4375,63.574 C154.455828,62.4579944 153.965,60.7530115 153.965,58.459 L153.965,49.252 L159.576,49.252 L159.576,58.614 C159.576,60.1640077 160.24766,60.939 161.591,60.939 C162.376337,60.939 163.011831,60.6600028 163.4975,60.102 C163.983169,59.5439972 164.226,58.8000046 164.226,57.87 L164.226,49.252 L169.899,49.252 Z M183.632,48.818 C184.97534,48.818 186.173995,49.1693298 187.228,49.872 C188.282005,50.5746702 189.108664,51.556327 189.708,52.817 C190.307336,54.077673 190.607,55.5243252 190.607,57.157 C190.607,58.7690081 190.312503,60.1898272 189.7235,61.4195 C189.134497,62.6491728 188.313005,63.5946634 187.259,64.256 C186.204995,64.9173366 184.996007,65.248 183.632,65.248 C182.598661,65.248 181.658338,65.046502 180.811,64.6435 C179.963662,64.240498 179.312669,63.6773369 178.858,62.954 L178.858,71.696 L173.247,71.696 L173.247,53.778 C173.247,52.0833249 173.164334,50.5746733 172.999,49.252 L178.269,49.252 L178.579,51.701 C178.971669,50.8329957 179.622662,50.1355026 180.532,49.6085 C181.441338,49.0814974 182.474661,48.818 183.632,48.818 Z M181.927,61.063 C182.939672,61.063 183.704331,60.7323366 184.221,60.071 C184.737669,59.4096634 184.996,58.4383397 184.996,57.157 C184.996,55.8549935 184.732503,54.8475036 184.2055,54.1345 C183.678497,53.4214964 182.919005,53.065 181.927,53.065 C180.914328,53.065 180.139336,53.4059966 179.602,54.088 C179.064664,54.7700034 178.796,55.7723267 178.796,57.095 C178.796,58.3763397 179.064664,59.3579966 179.602,60.04 C180.139336,60.7220034 180.914328,61.063 181.927,61.063 Z" id="Players-setup" fill="#FFFFFF"></path>
    </g>
</svg>