<?xml version="1.0" encoding="UTF-8"?>
<svg width="270px" height="75px" viewBox="0 0 270 75" version="1.1" xmlns="http://www.w3.org/2000/svg" xmlns:xlink="http://www.w3.org/1999/xlink">
    <!-- Generator: Sketch 52.2 (67145) - http://www.bohemiancoding.com/sketch -->
    <title>SetRoom</title>
    <desc>Created with Sketch.</desc>
    <g id="SetRoom" stroke="none" stroke-width="1" fill="none" fill-rule="evenodd">
        <polygon id="1" fill="#FFFFFF" points="82.56 53.08 94.88 53.08 94.88 65 55.36 65 55.36 53.08 67.6 53.08 67.6 24.36 56.16 30.92 56.16 18.04 73.76 8.04 82.56 8.04"></polygon>
        <path d="M128.576,17.538 L128.576,28.605 C127.397994,29.142336 126.080507,29.5556652 124.6235,29.845 C123.166493,30.1343348 121.673341,30.279 120.144,30.279 C117.746655,30.279 115.664509,29.8243379 113.8975,28.915 C112.130491,28.0056621 110.771671,26.6985085 109.821,24.9935 C108.870329,23.2884915 108.395,21.268345 108.395,18.933 C108.395,16.6596553 108.870329,14.6705085 109.821,12.9655 C110.771671,11.2604915 112.114991,9.94817126 113.851,9.0285 C115.587009,8.10882873 117.612322,7.649 119.927,7.649 C121.518341,7.649 123.021826,7.8556646 124.4375,8.269 C125.853174,8.6823354 127.005329,9.25066305 127.894,9.974 L126.065,14.097 C125.052328,13.4356634 124.075838,12.9551682 123.1355,12.6555 C122.195162,12.3558318 121.187672,12.206 120.113,12.206 C118.149657,12.206 116.687505,12.7588278 115.7265,13.8645 C114.765495,14.9701722 114.285,16.6596553 114.285,18.933 C114.285,21.2890118 114.786162,23.0353276 115.7885,24.172 C116.790838,25.3086724 118.335656,25.877 120.423,25.877 C121.394338,25.877 122.365662,25.7736677 123.337,25.567 L123.337,21.475 L119.493,21.475 L119.493,17.538 L128.576,17.538 Z M148.54,14.252 L148.54,30 L143.022,30 L143.022,27.861 C142.567331,28.6050037 141.906004,29.1888312 141.038,29.6125 C140.169996,30.0361688 139.219338,30.248 138.186,30.248 C136.84266,30.248 135.644005,29.9173366 134.59,29.256 C133.535995,28.5946634 132.714503,27.6491728 132.1255,26.4195 C131.536497,25.1898272 131.242,23.7690081 131.242,22.157 C131.242,20.5243252 131.541664,19.077673 132.141,17.817 C132.740336,16.556327 133.566995,15.5746702 134.621,14.872 C135.675005,14.1693298 136.863327,13.818 138.186,13.818 C139.219338,13.818 140.164829,14.0401644 141.0225,14.4845 C141.880171,14.9288356 142.546664,15.5229963 143.022,16.267 L143.022,14.252 L148.54,14.252 Z M139.922,26.063 C140.914005,26.063 141.678664,25.7220034 142.216,25.04 C142.753336,24.3579966 143.022,23.3763397 143.022,22.095 C143.022,20.7929935 142.753336,19.7958368 142.216,19.1035 C141.678664,18.4111632 140.914005,18.065 139.922,18.065 C138.950662,18.065 138.186003,18.4214964 137.628,19.1345 C137.069997,19.8475036 136.791,20.8549935 136.791,22.157 C136.791,23.417673 137.059664,24.38383 137.597,25.0555 C138.134336,25.72717 138.909328,26.063 139.922,26.063 Z M171.945,13.818 C173.763676,13.818 175.112162,14.3759944 175.9905,15.492 C176.868838,16.6080056 177.308,18.3129885 177.308,20.607 L177.308,30 L171.697,30 L171.697,20.762 C171.697,19.8319953 171.557501,19.1603354 171.2785,18.747 C170.999499,18.3336646 170.529337,18.127 169.868,18.127 C169.082663,18.127 168.473002,18.4163304 168.039,18.995 C167.604998,19.5736696 167.388,20.3899947 167.388,21.444 L167.388,30 L161.777,30 L161.777,20.762 C161.777,19.8319953 161.632335,19.1603354 161.343,18.747 C161.053665,18.3336646 160.58867,18.127 159.948,18.127 C159.162663,18.127 158.558169,18.4163304 158.1345,18.995 C157.710831,19.5736696 157.499,20.3899947 157.499,21.444 L157.499,30 L151.888,30 L151.888,18.778 C151.888,17.0833249 151.805334,15.5746733 151.64,14.252 L156.91,14.252 L157.189,16.453 C157.664336,15.6056624 158.330829,14.9546689 159.1885,14.5 C160.046171,14.0453311 161.032994,13.818 162.149,13.818 C164.401678,13.818 165.930996,14.7686572 166.737,16.67 C167.295003,15.8019957 168.033829,15.1096693 168.9535,14.593 C169.873171,14.0763307 170.870328,13.818 171.945,13.818 Z M195.102,22.684 L185.213,22.684 C185.316334,23.9033394 185.667664,24.781664 186.267,25.319 C186.866336,25.856336 187.744661,26.125 188.902,26.125 C189.687337,26.125 190.472663,25.9958346 191.258,25.7375 C192.043337,25.4791654 192.75633,25.1226689 193.397,24.668 L194.823,28.388 C194.037663,28.9666696 193.087006,29.4213317 191.971,29.752 C190.854994,30.0826683 189.739006,30.248 188.623,30.248 C186.824991,30.248 185.264673,29.9173366 183.942,29.256 C182.619327,28.5946634 181.60667,27.6491728 180.904,26.4195 C180.20133,25.1898272 179.85,23.7380084 179.85,22.064 C179.85,20.4726587 180.18583,19.0518396 180.8575,17.8015 C181.52917,16.5511604 182.459161,15.5746702 183.6475,14.872 C184.835839,14.1693298 186.194659,13.818 187.724,13.818 C189.212007,13.818 190.513994,14.1486634 191.63,14.81 C192.746006,15.4713366 193.603664,16.4168272 194.203,17.6465 C194.802336,18.8761728 195.102,20.3073252 195.102,21.94 L195.102,22.684 Z M187.879,17.662 C186.494326,17.662 185.626335,18.4679919 185.275,20.08 L190.297,20.08 C190.090332,18.4679919 189.28434,17.662 187.879,17.662 Z M118.625,48.88 C119.38967,48.88 119.978665,48.9936655 120.392,49.221 L120.392,54.336 C119.503329,53.9226646 118.645671,53.716 117.819,53.716 C115.462988,53.716 114.285,54.8423221 114.285,57.095 L114.285,65 L108.674,65 L108.674,53.778 C108.674,52.0833249 108.591334,50.5746733 108.426,49.252 L113.696,49.252 L114.037,51.887 C114.409002,50.9156618 115.008329,50.1716693 115.835,49.655 C116.661671,49.1383308 117.591662,48.88 118.625,48.88 Z M129.63,65.248 C127.873325,65.248 126.344007,64.9173366 125.042,64.256 C123.739993,63.5946634 122.73767,62.6440062 122.035,61.404 C121.33233,60.1639938 120.981,58.7070084 120.981,57.033 C120.981,55.3589916 121.33233,53.9020062 122.035,52.662 C122.73767,51.4219938 123.739993,50.4713366 125.042,49.81 C126.344007,49.1486634 127.873325,48.818 129.63,48.818 C131.366009,48.818 132.879827,49.15383 134.1715,49.8255 C135.463173,50.49717 136.46033,51.4478272 137.163,52.6775 C137.86567,53.9071728 138.217,55.3589916 138.217,57.033 C138.217,58.7070084 137.86567,60.1588272 137.163,61.3885 C136.46033,62.6181728 135.463173,63.56883 134.1715,64.2405 C132.879827,64.91217 131.366009,65.248 129.63,65.248 Z M129.63,61.063 C131.655343,61.063 132.668,59.7196801 132.668,57.033 C132.668,55.6689932 132.414836,54.6615033 131.9085,54.0105 C131.402164,53.3594967 130.642672,53.034 129.63,53.034 C128.596662,53.034 127.821669,53.3594967 127.305,54.0105 C126.788331,54.6615033 126.53,55.6689932 126.53,57.033 C126.53,58.4176736 126.788331,59.4354967 127.305,60.0865 C127.821669,60.7375033 128.596662,61.063 129.63,61.063 Z M148.788,65.248 C147.031325,65.248 145.502007,64.9173366 144.2,64.256 C142.897993,63.5946634 141.89567,62.6440062 141.193,61.404 C140.49033,60.1639938 140.139,58.7070084 140.139,57.033 C140.139,55.3589916 140.49033,53.9020062 141.193,52.662 C141.89567,51.4219938 142.897993,50.4713366 144.2,49.81 C145.502007,49.1486634 147.031325,48.818 148.788,48.818 C150.524009,48.818 152.037827,49.15383 153.3295,49.8255 C154.621173,50.49717 155.61833,51.4478272 156.321,52.6775 C157.02367,53.9071728 157.375,55.3589916 157.375,57.033 C157.375,58.7070084 157.02367,60.1588272 156.321,61.3885 C155.61833,62.6181728 154.621173,63.56883 153.3295,64.2405 C152.037827,64.91217 150.524009,65.248 148.788,65.248 Z M148.788,61.063 C150.813343,61.063 151.826,59.7196801 151.826,57.033 C151.826,55.6689932 151.572836,54.6615033 151.0665,54.0105 C150.560164,53.3594967 149.800672,53.034 148.788,53.034 C147.754661,53.034 146.979669,53.3594967 146.463,54.0105 C145.946331,54.6615033 145.688,55.6689932 145.688,57.033 C145.688,58.4176736 145.946331,59.4354967 146.463,60.0865 C146.979669,60.7375033 147.754661,61.063 148.788,61.063 Z M180.067,48.818 C181.885676,48.818 183.234162,49.3759944 184.1125,50.492 C184.990838,51.6080056 185.43,53.3129885 185.43,55.607 L185.43,65 L179.819,65 L179.819,55.762 C179.819,54.8319953 179.679501,54.1603354 179.4005,53.747 C179.121499,53.3336646 178.651337,53.127 177.99,53.127 C177.204663,53.127 176.595002,53.4163304 176.161,53.995 C175.726998,54.5736696 175.51,55.3899947 175.51,56.444 L175.51,65 L169.899,65 L169.899,55.762 C169.899,54.8319953 169.754335,54.1603354 169.465,53.747 C169.175665,53.3336646 168.71067,53.127 168.07,53.127 C167.284663,53.127 166.680169,53.4163304 166.2565,53.995 C165.832831,54.5736696 165.621,55.3899947 165.621,56.444 L165.621,65 L160.01,65 L160.01,53.778 C160.01,52.0833249 159.927334,50.5746733 159.762,49.252 L165.032,49.252 L165.311,51.453 C165.786336,50.6056624 166.452829,49.9546689 167.3105,49.5 C168.168171,49.0453311 169.154994,48.818 170.271,48.818 C172.523678,48.818 174.052996,49.7686572 174.859,51.67 C175.417003,50.8019957 176.155829,50.1096693 177.0755,49.593 C177.995171,49.0763307 178.992328,48.818 180.067,48.818 Z" id="Game-room" fill="#FFFFFF"></path>
    </g>
</svg>